<svg width="240" height="240" viewBox="0 0 240 240" fill="none" xmlns="http://www.w3.org/2000/svg">
<rect width="240" height="240" rx="40" fill="#0E1A2F"/>
<path d="M92.7663 171.667C92.804 173.459 92.4596 175.239 91.7562 176.887C91.0528 178.534 90.0067 180.013 88.6877 181.222C87.4567 182.515 85.9749 183.542 84.3335 184.24C82.6921 184.938 80.9257 185.291 79.143 185.279H78.8087C77.0285 185.291 75.2648 184.937 73.6261 184.239C71.9875 183.542 70.5086 182.515 69.2808 181.222C67.9778 180.004 66.9479 178.523 66.2591 176.875C65.5704 175.228 65.2386 173.453 65.2857 171.667V110.131C65.1803 102.968 66.5393 95.8583 69.2791 89.2418C72.0189 82.6253 76.0813 76.6418 81.2158 71.6604C86.1833 66.5114 92.1499 62.4376 98.7478 59.6901C105.346 56.9425 112.435 55.5796 119.578 55.6854C126.703 55.5878 133.772 56.9549 140.35 59.7024C146.928 62.4499 152.875 66.5195 157.824 71.6604C162.962 76.6394 167.026 82.6225 169.766 89.2395C172.506 95.8566 173.863 102.967 173.754 110.131V171.667C173.698 175.26 172.25 178.689 169.716 181.23C167.183 183.771 163.763 185.223 160.181 185.279H159.963C158.165 185.3 156.381 184.951 154.722 184.253C153.063 183.555 151.564 182.524 150.318 181.222C149.006 180.009 147.967 178.529 147.27 176.882C146.572 175.234 146.233 173.457 146.273 171.667V110.131C146.289 106.605 145.608 103.11 144.269 99.8489C142.93 96.5879 140.961 93.6251 138.474 91.1315C135.988 88.6378 133.033 86.6629 129.781 85.3205C126.53 83.9781 123.045 83.295 119.528 83.3105C116.012 83.295 112.527 83.9781 109.275 85.3205C106.023 86.6629 103.069 88.6378 100.582 91.1315C98.0954 93.6251 96.1259 96.5879 94.7874 99.8489C93.4488 103.11 92.7676 106.605 92.7831 110.131L92.7663 171.667Z" fill="#FFAE45"/>
</svg>
