<svg width="1069" height="1069" viewBox="0 0 1069 1069" fill="none" xmlns="http://www.w3.org/2000/svg">
<path d="M929.641 0H139.359C62.3933 0 0 62.3933 0 139.359V929.641C0 1006.61 62.3933 1069 139.359 1069H929.641C1006.61 1069 1069 1006.61 1069 929.641V139.359C1069 62.3933 1006.61 0 929.641 0Z" fill="#1F2632"/>
<path d="M929.641 0H139.359C62.3933 0 0 62.3933 0 139.359V929.641C0 1006.61 62.3933 1069 139.359 1069H929.641C1006.61 1069 1069 1006.61 1069 929.641V139.359C1069 62.3933 1006.61 0 929.641 0Z" fill="#1F2632"/>
<path d="M396.775 774.411C396.994 783.594 395.258 792.718 391.68 801.177C388.102 809.637 382.764 817.238 376.023 823.476C369.7 830.11 362.083 835.374 353.643 838.944C345.203 842.513 336.121 844.312 326.957 844.229H325.225C316.068 844.307 306.993 842.505 298.56 838.936C290.127 835.366 282.517 830.105 276.199 823.476C269.444 817.247 264.095 809.648 260.51 801.187C256.924 792.726 255.185 783.598 255.407 774.411V458.795C255.407 381.85 282.722 316.062 337.353 261.431C391.984 206.801 457.759 179.498 534.677 179.525C611.228 179.525 676.859 206.827 731.568 261.431C786.278 316.036 813.593 381.824 813.514 458.795V774.411C813.24 792.842 805.796 810.442 792.762 823.476C779.727 836.51 762.128 843.954 743.697 844.229H742.555C733.299 844.346 724.118 842.566 715.577 838.996C707.037 835.427 699.318 830.145 692.899 823.476C686.157 817.238 680.82 809.637 677.242 801.177C673.664 792.718 671.927 783.594 672.147 774.411V458.795C672.272 440.701 668.808 422.761 661.955 406.014C655.103 389.267 644.998 374.044 632.225 361.228C619.452 348.411 604.265 338.253 587.541 331.344C570.818 324.434 552.89 320.908 534.795 320.971C516.661 320.846 498.683 324.325 481.904 331.206C465.126 338.088 449.882 348.236 437.059 361.059C424.236 373.882 414.089 389.125 407.207 405.904C400.325 422.682 396.846 440.661 396.972 458.795L396.775 774.411Z" fill="#FBC680"/>
<path d="M741.845 431.034L737.277 432.334C721.826 436.565 705.385 435.306 690.758 428.771C676.131 422.237 664.223 410.831 657.064 396.499C650.531 384.138 642.211 372.806 632.374 362.87C606.37 337.044 571.208 322.55 534.559 322.55C497.909 322.55 462.747 337.044 436.743 362.87C423.823 375.583 413.618 390.786 406.748 407.559C399.877 424.333 396.484 442.326 396.774 460.45V776.027C396.991 785.212 395.249 794.339 391.664 802.799C388.079 811.259 382.733 818.859 375.982 825.092C369.664 831.72 362.054 836.982 353.621 840.551C345.189 844.12 336.113 845.922 326.957 845.844H325.224C316.054 845.933 306.964 844.137 298.517 840.567C290.07 836.997 282.446 831.73 276.119 825.092C269.379 818.855 264.045 811.253 260.473 802.792C256.901 794.332 255.174 785.207 255.406 776.027V460.45C255.406 383.505 282.696 317.704 337.274 263.047C391.852 208.39 457.705 181.114 534.834 181.219C611.385 181.219 677.016 208.534 731.725 263.165C752.964 284.115 770.76 308.289 784.453 334.794C788.967 343.786 791.434 353.665 791.678 363.724C791.922 373.782 789.936 383.77 785.863 392.97C781.79 402.17 775.731 410.354 768.12 416.935C760.51 423.517 751.537 428.331 741.845 431.034Z" fill="#F7AA43"/>
<path d="M326.248 466.119C307.449 466.119 289.421 473.587 276.128 486.88C262.835 500.172 255.367 518.201 255.367 537V778.546C255.149 787.713 256.883 796.822 260.454 805.267C264.025 813.713 269.352 821.303 276.08 827.532C282.408 834.175 290.03 839.451 298.475 843.034C306.921 846.616 316.011 848.43 325.185 848.363H326.918C336.08 848.431 345.159 846.617 353.592 843.034C362.025 839.451 369.632 834.175 375.944 827.532C382.717 821.29 388.079 813.673 391.671 805.191C395.264 796.709 397.004 787.558 396.775 778.349V536.803C396.775 518.004 389.307 499.976 376.014 486.683C362.721 473.39 344.693 465.922 325.894 465.922L326.248 466.119Z" fill="#C17727"/>
<path d="M396.775 774.411C396.994 783.594 395.258 792.718 391.68 801.177C388.102 809.637 382.764 817.238 376.023 823.476C369.7 830.11 362.083 835.374 353.643 838.944C345.203 842.513 336.121 844.312 326.957 844.229H325.225C316.068 844.307 306.993 842.505 298.56 838.936C290.127 835.366 282.517 830.105 276.199 823.476C269.444 817.247 264.095 809.648 260.51 801.187C256.924 792.726 255.185 783.598 255.407 774.411V458.795C255.407 381.85 282.722 316.062 337.353 261.431C391.984 206.801 457.759 179.498 534.677 179.525C611.228 179.525 676.859 206.827 731.568 261.431C786.278 316.036 813.593 381.824 813.514 458.795V774.411C813.24 792.842 805.796 810.442 792.762 823.476C779.727 836.51 762.128 843.954 743.697 844.229H742.555C733.299 844.346 724.118 842.566 715.577 838.996C707.037 835.427 699.318 830.145 692.899 823.476C686.157 817.238 680.82 809.637 677.242 801.177C673.664 792.718 671.927 783.594 672.147 774.411V458.795C672.272 440.701 668.808 422.761 661.955 406.014C655.103 389.267 644.998 374.044 632.225 361.228C619.452 348.411 604.265 338.253 587.541 331.344C570.818 324.434 552.89 320.908 534.795 320.971C516.661 320.846 498.683 324.325 481.904 331.206C465.126 338.088 449.882 348.236 437.059 361.059C424.236 373.882 414.089 389.125 407.207 405.904C400.325 422.682 396.846 440.661 396.972 458.795L396.775 774.411Z" fill="#FBC680"/>
<path d="M741.845 431.034L737.277 432.334C721.826 436.565 705.385 435.306 690.758 428.771C676.131 422.237 664.223 410.831 657.064 396.499C650.531 384.138 642.211 372.806 632.374 362.87C606.37 337.044 571.208 322.55 534.559 322.55C497.909 322.55 462.747 337.044 436.743 362.87C423.823 375.583 413.618 390.786 406.748 407.559C399.877 424.333 396.484 442.326 396.774 460.45V776.027C396.991 785.212 395.249 794.339 391.664 802.799C388.079 811.259 382.733 818.859 375.982 825.092C369.664 831.72 362.054 836.982 353.621 840.551C345.189 844.12 336.113 845.922 326.957 845.844H325.224C316.054 845.933 306.964 844.137 298.517 840.567C290.07 836.997 282.446 831.73 276.119 825.092C269.379 818.855 264.045 811.253 260.473 802.792C256.901 794.332 255.174 785.207 255.406 776.027V460.45C255.406 383.505 282.696 317.704 337.274 263.047C391.852 208.39 457.705 181.114 534.834 181.219C611.385 181.219 677.016 208.534 731.725 263.165C752.964 284.115 770.76 308.289 784.453 334.794C788.967 343.786 791.434 353.665 791.678 363.724C791.922 373.782 789.936 383.77 785.863 392.97C781.79 402.17 775.731 410.354 768.12 416.935C760.51 423.517 751.537 428.331 741.845 431.034Z" fill="#F7AA43"/>
<path d="M326.248 466.119C307.449 466.119 289.421 473.587 276.128 486.88C262.835 500.172 255.367 518.201 255.367 537V778.546C255.149 787.713 256.883 796.822 260.454 805.267C264.025 813.713 269.352 821.303 276.08 827.532C282.408 834.175 290.03 839.451 298.475 843.034C306.921 846.616 316.011 848.43 325.185 848.363H326.918C336.08 848.431 345.159 846.617 353.592 843.034C362.025 839.451 369.632 834.175 375.944 827.532C382.717 821.29 388.079 813.673 391.671 805.191C395.264 796.709 397.004 787.558 396.775 778.349V536.803C396.775 518.004 389.307 499.976 376.014 486.683C362.721 473.39 344.693 465.922 325.894 465.922L326.248 466.119Z" fill="#C17727"/>
</svg>
