<svg width="1167" height="340" viewBox="0 0 1167 340" fill="none" xmlns="http://www.w3.org/2000/svg">
<rect width="1167" height="340" rx="41" fill="#1F2632"/>
<path d="M119.874 251.495C119.945 254.408 119.393 257.303 118.257 259.986C117.12 262.669 115.425 265.079 113.284 267.055C111.271 269.144 108.852 270.8 106.177 271.92C103.501 273.041 100.625 273.604 97.7238 273.573H97.161C94.255 273.594 91.3754 273.02 88.6995 271.887C86.0236 270.754 83.608 269.084 81.6013 266.982C79.46 265.006 77.7645 262.596 76.6281 259.913C75.4916 257.23 74.9402 254.336 75.0107 251.423V151.329C74.8262 139.674 77.0315 128.104 81.4906 117.334C85.9497 106.564 92.5681 96.8223 100.937 88.7088C109.053 80.3173 118.804 73.6803 129.588 69.2082C140.371 64.7362 151.958 62.5243 163.63 62.7095C175.261 62.5517 186.801 64.7771 197.54 69.2485C208.278 73.7199 217.987 80.3427 226.068 88.7088C234.451 96.8161 241.083 106.555 245.555 117.326C250.026 128.096 252.243 139.668 252.068 151.329V251.495C251.955 257.341 249.573 262.913 245.426 267.033C241.278 271.153 235.691 273.499 229.845 273.573H229.482C226.544 273.61 223.63 273.044 220.919 271.91C218.209 270.777 215.759 269.1 213.722 266.982C211.581 265.006 209.886 262.596 208.749 259.913C207.613 257.23 207.061 254.336 207.132 251.423V151.329C207.173 145.587 206.075 139.893 203.902 134.578C201.729 129.263 198.523 124.431 194.471 120.362C190.419 116.293 185.601 113.068 180.295 110.873C174.989 108.678 169.3 107.556 163.557 107.573C157.801 107.534 152.093 108.64 146.767 110.825C141.441 113.01 136.602 116.232 132.531 120.303C128.46 124.373 125.239 129.212 123.054 134.539C120.868 139.865 119.763 145.572 119.802 151.329L119.874 251.495Z" fill="#F1D2A8"/>
<path d="M229.337 142.524L227.885 142.941C222.987 144.275 217.779 143.871 213.145 141.8C208.511 139.728 204.738 136.115 202.467 131.576C200.388 127.653 197.746 124.056 194.623 120.9C190.615 116.791 185.81 113.544 180.503 111.359C175.195 109.174 169.497 108.095 163.758 108.191C157.991 108.13 152.269 109.219 146.927 111.394C141.585 113.569 136.73 116.786 132.645 120.858C128.56 124.929 125.327 129.774 123.134 135.108C120.942 140.443 119.834 146.161 119.875 151.928V252.059C119.947 254.977 119.397 257.878 118.26 260.567C117.124 263.256 115.428 265.672 113.284 267.655C111.275 269.752 108.858 271.416 106.183 272.546C103.507 273.677 100.629 274.249 97.7247 274.227H97.18C94.2725 274.252 91.3906 273.682 88.7116 272.552C86.0326 271.421 83.6132 269.755 81.6022 267.655C79.4614 265.671 77.7678 263.255 76.6345 260.565C75.5012 257.876 74.9541 254.976 75.0297 252.059V151.928C74.8368 140.26 77.0362 128.676 81.4921 117.891C85.9481 107.106 92.5662 97.3472 100.938 89.2177C109.063 80.8326 118.818 74.1999 129.603 69.7285C140.388 65.257 151.975 63.0415 163.649 63.2183C175.277 63.0609 186.815 65.2865 197.55 69.758C208.285 74.2295 217.991 80.8521 226.069 89.2177C232.83 95.872 238.493 103.557 242.846 111.985C244.279 114.838 245.063 117.972 245.142 121.163C245.221 124.355 244.592 127.524 243.3 130.443C242.009 133.363 240.087 135.96 237.673 138.049C235.259 140.137 232.412 141.666 229.337 142.524Z" fill="#F7AA43"/>
<path d="M388.653 62.7106C402.524 62.4984 416.293 65.1273 429.11 70.4354C441.927 75.7435 453.523 83.6185 463.183 93.5758C473.134 103.221 481.006 114.802 486.314 127.603C491.623 140.405 494.255 154.158 494.048 168.015C494.26 181.887 491.632 195.655 486.324 208.473C481.015 221.29 473.14 232.886 463.183 242.546C453.402 252.342 441.786 260.114 428.999 265.416C416.212 270.719 402.505 273.448 388.662 273.448C374.819 273.448 361.112 270.719 348.325 265.416C335.537 260.114 323.921 252.342 314.141 242.546C304.178 232.904 296.293 221.327 290.969 208.525C285.646 195.724 282.997 181.969 283.185 168.106C282.997 154.243 285.646 140.488 290.969 127.687C296.293 114.886 304.178 103.308 314.141 93.6666C323.791 83.6951 335.38 75.8045 348.194 70.4807C361.009 65.157 374.778 62.5126 388.653 62.7106ZM388.653 107.937C380.669 107.903 372.758 109.454 365.378 112.499C357.998 115.544 351.296 120.023 345.659 125.677C340.022 131.33 335.563 138.046 332.54 145.435C329.517 152.825 327.99 160.74 328.048 168.723C328.035 180.72 331.582 192.45 338.242 202.427C344.902 212.405 354.374 220.181 365.458 224.77C376.541 229.359 388.738 230.555 400.502 228.205C412.265 225.855 423.067 220.066 431.537 211.572C442.909 200.179 449.296 184.739 449.296 168.642C449.296 152.544 442.909 137.105 431.537 125.712C425.984 119.975 419.313 115.438 411.937 112.381C404.561 109.324 396.636 107.811 388.653 107.937Z" fill="#F1D2A8"/>
<path d="M463.185 94.1924C453.415 84.3765 441.802 76.5875 429.014 71.2726C416.225 65.9577 402.513 63.2217 388.663 63.2217C374.814 63.2217 361.102 65.9577 348.313 71.2726C335.524 76.5875 323.912 84.3765 314.142 94.1924C304.19 103.837 296.318 115.417 291.009 128.219C285.701 141.021 283.07 154.775 283.277 168.632C283.387 191.832 291.074 214.36 305.167 232.789C319.259 251.218 338.987 264.538 361.348 270.723C364.612 271.521 368.015 271.564 371.298 270.849C374.581 270.134 377.658 268.679 380.294 266.596C382.931 264.513 385.057 261.856 386.512 258.827C387.967 255.798 388.712 252.477 388.691 249.117C388.642 244.175 386.968 239.386 383.926 235.491C380.884 231.596 376.643 228.811 371.86 227.566C359.216 223.902 348.107 216.223 340.21 205.69C332.314 195.157 328.058 182.341 328.086 169.177C328.045 157.169 331.572 145.42 338.219 135.42C344.867 125.42 354.335 117.62 365.423 113.01C376.51 108.4 388.717 107.187 400.495 109.526C412.273 111.865 423.09 117.65 431.575 126.147C433.028 127.599 434.389 129.106 435.678 130.65C439.016 134.655 443.665 137.349 448.8 138.253C453.935 139.157 459.224 138.213 463.729 135.588L464.31 135.261C467.091 133.648 469.488 131.448 471.334 128.816C473.181 126.184 474.432 123.181 475.002 120.017C475.572 116.852 475.447 113.602 474.635 110.491C473.824 107.379 472.345 104.482 470.302 101.999C468.087 99.2761 465.727 96.7161 463.185 94.1924Z" fill="#F7AA43"/>
<path d="M345.625 212.822C339.945 207.24 335.458 200.562 332.437 193.193C329.416 185.825 327.923 177.919 328.05 169.956C328.008 163.449 328.976 156.975 330.919 150.765C332.452 146.07 332.381 140.999 330.718 136.349C329.055 131.698 325.894 127.732 321.732 125.074L321.169 124.711C318.301 122.893 315.055 121.756 311.679 121.387C308.304 121.019 304.889 121.429 301.696 122.586C298.504 123.743 295.619 125.617 293.263 128.062C290.908 130.508 289.144 133.461 288.107 136.694C284.789 147.268 283.136 158.293 283.205 169.375C283.311 192.578 290.996 215.11 305.089 233.543C319.182 251.976 338.912 265.299 361.275 271.484C364.534 272.287 367.933 272.336 371.214 271.629C374.495 270.922 377.572 269.477 380.211 267.403C382.85 265.329 384.982 262.681 386.445 259.661C387.908 256.64 388.664 253.326 388.655 249.969C388.606 245.029 386.93 240.243 383.888 236.351C380.846 232.459 376.606 229.677 371.824 228.436C361.87 225.626 352.833 220.24 345.625 212.822Z" fill="#C17727"/>
<path d="M657.455 85.9824C657.388 83.0699 657.941 80.1765 659.077 77.4939C660.214 74.8114 661.907 72.401 664.046 70.4227C666.052 68.3207 668.468 66.6516 671.144 65.5182C673.82 64.3848 676.699 63.811 679.605 63.8321H680.15C683.056 63.8088 685.937 64.3816 688.613 65.5152C691.289 66.6488 693.704 68.319 695.71 70.4227C697.848 72.401 699.542 74.8114 700.678 77.4939C701.814 80.1765 702.367 83.0699 702.3 85.9824V186.149C702.341 203.673 697.175 220.813 687.458 235.396C677.741 249.979 663.911 261.346 647.722 268.055C631.534 274.764 613.717 276.513 596.533 273.079C579.35 269.646 563.573 261.184 551.206 248.769C542.828 240.658 536.199 230.918 531.728 220.149C527.256 209.38 525.037 197.809 525.207 186.149V85.9824C525.3 80.1339 527.667 74.5514 531.804 70.417C535.942 66.2826 541.527 63.921 547.375 63.8321H547.738C550.673 63.7968 553.584 64.3634 556.292 65.497C558.999 66.6305 561.445 68.3069 563.48 70.4227C565.618 72.401 567.312 74.8114 568.448 77.4939C569.584 80.1765 570.137 83.0699 570.07 85.9824V186.149C569.952 191.959 570.994 197.735 573.136 203.137C575.277 208.54 578.475 213.461 582.542 217.612C586.61 221.763 591.464 225.061 596.822 227.312C602.18 229.563 607.933 230.723 613.745 230.723C619.556 230.723 625.309 229.563 630.667 227.312C636.025 225.061 640.879 221.763 644.947 217.612C649.014 213.461 652.212 208.54 654.354 203.137C656.495 197.735 657.537 191.959 657.419 186.149L657.455 85.9824Z" fill="#F7AA43"/>
<path d="M679.79 183.828C673.839 183.828 668.131 181.464 663.922 177.255C659.714 173.047 657.349 167.339 657.349 161.387V84.7508C657.279 81.8405 657.831 78.9487 658.967 76.2687C660.104 73.5886 661.799 71.1818 663.94 69.2092C665.948 67.0977 668.369 65.4215 671.051 64.2846C673.734 63.1477 676.622 62.5745 679.536 62.6005H680.081C682.985 62.582 685.863 63.1588 688.536 64.2955C691.209 65.4321 693.62 67.1044 695.622 69.2092C697.763 71.1818 699.458 73.5886 700.595 76.2687C701.731 78.9487 702.283 81.8405 702.213 84.7508V161.387C702.215 164.333 701.637 167.251 700.511 169.974C699.385 172.696 697.734 175.17 695.652 177.254C693.569 179.338 691.097 180.991 688.375 182.119C685.653 183.247 682.736 183.828 679.79 183.828Z" fill="#C17727"/>
<path d="M789.629 84.7511C789.557 81.8161 790.116 78.8998 791.269 76.1997C792.422 73.4996 794.141 71.0786 796.31 69.1006C798.319 66.9963 800.738 65.3259 803.417 64.1924C806.096 63.0589 808.979 62.4863 811.888 62.51H812.433C815.339 62.4888 818.219 63.0626 820.894 64.1961C823.57 65.3295 825.986 66.9986 827.993 69.1006C830.119 71.1 831.795 73.5305 832.906 76.2295C834.018 78.9286 834.54 81.8339 834.438 84.7511V184.899C834.438 208.379 825.111 230.896 808.509 247.499C791.906 264.101 769.389 273.428 745.909 273.428C722.43 273.428 699.913 264.101 683.31 247.499C666.708 230.896 657.381 208.379 657.381 184.899V84.7511C657.474 78.9056 659.838 73.3258 663.972 69.1919C668.106 65.058 673.686 62.6943 679.531 62.6008H679.912C682.847 62.5655 685.758 63.1321 688.466 64.2656C691.173 65.3992 693.619 67.0756 695.654 69.1914C697.805 71.1626 699.511 73.5703 700.656 76.2536C701.802 78.9369 702.362 81.834 702.299 84.7511V184.899C702.299 196.48 706.899 207.587 715.088 215.775C723.277 223.964 734.383 228.565 745.964 228.565C757.545 228.565 768.651 223.964 776.84 215.775C785.029 207.587 789.629 196.48 789.629 184.899V84.7511Z" fill="#F7AA43"/>
<path d="M680.113 193.686L681.584 193.269C686.483 191.94 691.692 192.348 696.325 194.423C700.958 196.498 704.731 200.112 707.002 204.653C709.08 208.576 711.723 212.172 714.846 215.328C720.952 221.491 728.756 225.696 737.262 227.406C745.767 229.117 754.59 228.256 762.604 224.933C770.619 221.611 777.462 215.977 782.263 208.75C787.063 201.523 789.602 193.03 789.557 184.354V84.1513C789.507 81.2233 790.084 78.3184 791.249 75.6316C792.414 72.9448 794.14 70.5383 796.311 68.5735C798.319 66.4739 800.735 64.8076 803.411 63.6772C806.087 62.5469 808.966 61.9764 811.871 62.001H812.416C815.324 61.9729 818.207 62.5416 820.886 63.6721C823.566 64.8026 825.985 66.4708 827.994 68.5735C830.11 70.5654 831.779 72.9842 832.89 75.6698C834.001 78.3553 834.529 81.2463 834.439 84.1513V184.282C834.485 201.801 829.326 218.939 819.615 233.521C809.905 248.103 796.082 259.472 779.9 266.185C763.717 272.898 745.906 274.653 728.725 271.226C711.544 267.799 695.768 259.345 683.399 246.938C676.638 240.264 670.976 232.561 666.623 224.116C665.213 221.269 664.446 218.146 664.378 214.97C664.311 211.794 664.943 208.641 666.231 205.737C667.518 202.832 669.429 200.247 671.829 198.164C674.228 196.082 677.056 194.553 680.113 193.686Z" fill="#F1D2A8"/>
<path d="M976.057 64.9968C989.928 64.7846 1003.7 67.4134 1016.51 72.7215C1029.33 78.0296 1040.93 85.9046 1050.59 95.8619C1060.54 105.522 1068.42 117.118 1073.73 129.935C1079.04 142.753 1081.66 156.521 1081.45 170.392C1081.66 184.249 1079.03 198.002 1073.72 210.804C1068.41 223.606 1060.54 235.186 1050.59 244.832C1040.81 254.643 1029.2 262.429 1016.41 267.741C1003.62 273.053 989.913 275.787 976.066 275.787C962.218 275.787 948.507 273.053 935.718 267.741C922.93 262.429 911.316 254.643 901.544 244.832C891.574 235.196 883.684 223.62 878.36 210.817C873.035 198.014 870.391 184.256 870.588 170.392C870.4 156.529 873.05 142.775 878.373 129.973C883.697 117.172 891.582 105.594 901.544 95.9527C911.191 85.976 922.779 78.0821 935.594 72.7579C948.41 67.4337 962.181 64.7923 976.057 64.9968ZM976.057 110.169C968.072 110.13 960.159 111.677 952.776 114.721C945.394 117.764 938.69 122.243 933.052 127.898C927.414 133.552 922.955 140.27 919.934 147.661C916.913 155.053 915.389 162.97 915.452 170.955C915.486 180.911 917.972 190.705 922.69 199.472C927.409 208.239 934.215 215.708 942.506 221.219C950.797 226.731 960.318 230.115 970.228 231.072C980.138 232.03 990.131 230.531 999.324 226.709C1008.52 222.886 1016.63 216.858 1022.94 209.157C1029.25 201.456 1033.56 192.319 1035.5 182.553C1037.44 172.788 1036.94 162.696 1034.05 153.168C1031.17 143.64 1025.98 134.97 1018.94 127.925C1013.39 122.192 1006.71 117.658 999.338 114.604C991.962 111.55 984.039 110.041 976.057 110.169Z" fill="#F1D2A8"/>
<path d="M1050.62 96.459C1040.85 86.6475 1029.24 78.8623 1016.45 73.5501C1003.66 68.238 989.95 65.5034 976.102 65.5034C962.255 65.5034 948.543 68.238 935.755 73.5501C922.967 78.8623 911.353 86.6475 901.581 96.459C891.63 106.105 883.758 117.685 878.45 130.487C873.142 143.288 870.51 157.041 870.716 170.899C870.829 194.097 878.517 216.625 892.609 235.053C906.702 253.481 926.428 266.802 948.787 272.99C952.039 273.77 955.427 273.801 958.694 273.083C961.961 272.364 965.022 270.914 967.647 268.841C970.272 266.768 972.393 264.126 973.85 261.115C975.307 258.104 976.061 254.802 976.057 251.457C975.994 246.534 974.317 241.768 971.283 237.891C968.249 234.014 964.026 231.241 959.263 229.996C946.615 226.331 935.504 218.65 927.607 208.113C919.711 197.576 915.457 184.756 915.489 171.588C915.451 159.582 918.981 147.836 925.63 137.838C932.278 127.841 941.747 120.044 952.834 115.436C963.92 110.829 976.126 109.618 987.902 111.957C999.678 114.297 1010.49 120.081 1018.98 128.577C1020.43 130.029 1021.79 131.536 1023.08 133.061C1026.44 137.063 1031.1 139.744 1036.25 140.628C1041.39 141.513 1046.69 140.543 1051.19 137.891L1051.77 137.564C1054.56 135.952 1056.97 133.749 1058.82 131.111C1060.67 128.473 1061.93 125.462 1062.5 122.288C1063.07 119.114 1062.94 115.854 1062.12 112.735C1061.3 109.616 1059.82 106.714 1057.76 104.23C1055.53 101.579 1053.15 98.9887 1050.62 96.459Z" fill="#F7AA43"/>
<path d="M933.063 215.093C927.381 209.513 922.892 202.835 919.871 195.466C916.849 188.097 915.359 180.19 915.488 172.227C915.448 165.726 916.415 159.258 918.357 153.054C919.885 148.356 919.812 143.284 918.15 138.632C916.487 133.98 913.329 130.011 909.17 127.345L908.607 127C905.741 125.182 902.496 124.044 899.121 123.675C895.746 123.305 892.332 123.714 889.14 124.869C885.948 126.024 883.063 127.895 880.706 130.339C878.349 132.782 876.584 135.733 875.545 138.965C872.229 149.539 870.575 160.564 870.643 171.646C870.748 194.851 878.432 217.387 892.525 235.822C906.618 254.258 926.349 267.584 948.714 273.773C951.975 274.567 955.373 274.608 958.652 273.893C961.931 273.179 965.004 271.727 967.639 269.649C970.274 267.57 972.401 264.919 973.859 261.897C975.318 258.875 976.069 255.56 976.057 252.204C976.008 247.264 974.332 242.478 971.29 238.586C968.248 234.693 964.008 231.912 959.226 230.671C949.29 227.864 940.267 222.491 933.063 215.093Z" fill="#C17727"/>
<path d="M1058.58 158.772C1055.63 158.772 1052.72 159.352 1050 160.479C1047.28 161.606 1044.8 163.258 1042.72 165.34C1040.64 167.422 1038.99 169.894 1037.86 172.614C1036.73 175.335 1036.15 178.251 1036.15 181.195V257.832C1036.08 260.743 1036.63 263.637 1037.76 266.321C1038.89 269.004 1040.59 271.414 1042.73 273.391C1044.73 275.498 1047.15 277.171 1049.83 278.308C1052.51 279.444 1055.39 280.02 1058.3 280H1058.87C1061.77 280.018 1064.65 279.442 1067.32 278.305C1070 277.168 1072.41 275.496 1074.41 273.391C1076.55 271.416 1078.25 269.007 1079.39 266.324C1080.53 263.641 1081.08 260.746 1081.02 257.832V181.195C1081.02 178.249 1080.44 175.332 1079.31 172.61C1078.18 169.889 1076.53 167.416 1074.44 165.333C1072.36 163.251 1069.89 161.6 1067.16 160.474C1064.44 159.348 1061.52 158.77 1058.58 158.772Z" fill="#F1D2A8"/>
<path d="M97.4515 153.741C91.5172 153.741 85.8249 156.093 81.6219 160.282C77.4189 164.472 75.0481 170.156 75.0289 176.091V252.727C74.9561 255.639 75.5046 258.532 76.6379 261.215C77.7712 263.898 79.4633 266.309 81.6013 268.287C83.6094 270.392 86.0279 272.063 88.7072 273.197C91.3866 274.33 94.27 274.902 97.1792 274.877H97.7238C100.63 274.899 103.509 274.325 106.185 273.191C108.861 272.058 111.277 270.389 113.284 268.287C115.424 266.31 117.119 263.9 118.255 261.217C119.392 258.534 119.943 255.64 119.874 252.727V176.091C119.855 170.156 117.484 164.472 113.281 160.282C109.078 156.093 103.386 153.741 97.4515 153.741Z" fill="#C17727"/>
<path d="M547.991 194.957L549.444 194.54C554.341 193.213 559.547 193.62 564.179 195.691C568.811 197.763 572.585 201.371 574.862 205.906C576.918 209.842 579.563 213.442 582.705 216.581C588.809 222.746 596.61 226.952 605.113 228.665C613.617 230.378 622.439 229.519 630.452 226.198C638.466 222.876 645.309 217.244 650.108 210.018C654.907 202.792 657.446 194.3 657.399 185.625V85.4951C657.329 82.5779 657.883 79.6793 659.023 76.993C660.162 74.3067 661.862 71.8945 664.008 69.9172C666.01 67.8149 668.423 66.1453 671.096 65.0118C673.769 63.8782 676.646 63.3047 679.549 63.3266H680.094C683.004 63.2997 685.888 63.8708 688.567 65.0045C691.247 66.1383 693.665 67.8104 695.672 69.9172C697.816 71.8954 699.512 74.3082 700.649 76.9946C701.785 79.681 702.336 82.5791 702.263 85.4951V185.625C702.3 203.143 697.134 220.277 687.42 234.855C677.706 249.432 663.882 260.797 647.7 267.507C631.518 274.217 613.708 275.97 596.529 272.544C579.35 269.118 563.575 260.667 551.205 248.263C544.45 241.583 538.789 233.882 534.429 225.441C533.009 222.587 532.237 219.455 532.169 216.268C532.101 213.081 532.737 209.919 534.033 207.006C535.329 204.094 537.252 201.504 539.664 199.421C542.077 197.338 544.921 195.814 547.991 194.957Z" fill="#C17727"/>
</svg>
